# xmcd
#
# Track frame offsets: 
#        150
#        40338
#        57146
#        81567
#        104319
#        122071
#        173707
#        191909
#        241142
#
# Disc length: 3596 seconds
#
# Revision: 0
# Processed by: cddbd v1.5.2PL0 Copyright (c) Steve Scherf et al.
# Submitted via: ExactAudioCopy v1.0b4
#
DISCID=770e0a09
DTITLE=Rod Piazza and the Mighty Flyers - Live At Fleetwoods - Disc2
DYEAR=2017
DGENRE=Blues
TTITLE0=Low Down Dog
TTITLE1=Bad Bad Boy
TTITLE2=Key To The Highway
TTITLE3=TBone Jumps Again
TTITLE4=Mellow Down Easy
TTITLE5=Are You Out There
TTITLE6=Ain't No Rockin' No More
TTITLE7=Love And Money
TTITLE8=Tangled With A Woman
EXTD=
EXTT0=
EXTT1=
EXTT2=
EXTT3=
EXTT4=
EXTT5=
EXTT6=
EXTT7=
EXTT8=
PLAYORDER=
